<?xml version="1.0" encoding="UTF-8"?>
<svg width="19px" height="19px" viewBox="0 0 19 19" version="1.1" xmlns="http://www.w3.org/2000/svg" xmlns:xlink="http://www.w3.org/1999/xlink">
    <!-- Generator: Sketch 58 (84663) - https://sketch.com -->
    <title>Facebook</title>
    <desc>Created with Sketch.</desc>
    <g id="Symbols" stroke="none" stroke-width="1" fill="none" fill-rule="evenodd">
        <g id="D/Footer" transform="translate(-64.000000, -131.000000)" fill="#3A3A3A">
            <g id="icons" transform="translate(64.000000, 131.000000)">
                <path d="M19,9.55805773 C19,4.27928432 14.746709,0 9.5,0 C4.25329102,0 0,4.27928432 0,9.55805773 C0,14.3287606 3.4740127,18.282959 8.015625,19 L8.015625,12.3209338 L5.60351562,12.3209338 L5.60351562,9.55805773 L8.015625,9.55805773 L8.015625,7.45229814 C8.015625,5.05680992 9.4339082,3.7336163 11.603916,3.7336163 C12.6432939,3.7336163 13.7304688,3.92029712 13.7304688,3.92029712 L13.7304688,6.27247539 L12.532541,6.27247539 C11.3524072,6.27247539 10.984375,7.00924856 10.984375,7.76511918 L10.984375,9.55805773 L13.6191406,9.55805773 L13.1979492,12.3209338 L10.984375,12.3209338 L10.984375,19 C15.5259873,18.282959 19,14.3287606 19,9.55805773" id="Facebook"></path>
            </g>
        </g>
    </g>
</svg>