<?xml version="1.0" encoding="UTF-8"?>
<svg width="19px" height="19px" viewBox="0 0 19 19" version="1.1" xmlns="http://www.w3.org/2000/svg" xmlns:xlink="http://www.w3.org/1999/xlink">
    <!-- Generator: Sketch 58 (84663) - https://sketch.com -->
    <title>LinkedIn</title>
    <desc>Created with Sketch.</desc>
    <g id="Symbols" stroke="none" stroke-width="1" fill="none" fill-rule="evenodd">
        <g id="D/Footer" transform="translate(-137.000000, -131.000000)" fill="#3A3A3A">
            <g id="icons" transform="translate(64.000000, 131.000000)">
                <path d="M90.5944288,0 C91.3691083,0 92,0.613321867 92,1.36996069 L92,1.36996069 L92,17.6290123 C92,18.3856044 91.3691083,19 90.5944288,19 L90.5944288,19 L74.4014163,19 C73.6282774,19 73,18.3856044 73,17.6290123 L73,17.6290123 L73,1.36996069 C73,0.613321867 73.6282774,0 74.4014163,0 L74.4014163,0 Z M78.4323337,6.90945586 L75.5996461,6.90945586 L75.5996461,16.03125 L78.4323337,16.03125 L78.4323337,6.90945586 Z M85.6364784,6.6830853 C84.2596773,6.6830853 83.3363407,7.43936022 82.9590084,8.15646645 L82.9590084,8.15646645 L82.9202392,8.15646645 L82.9202392,6.90945586 L80.2076097,6.90945586 L80.2076097,16.03125 L83.0340623,16.03125 L83.0340623,11.5196191 C83.0340623,10.3296238 83.2587553,9.17668379 84.7312372,9.17668379 C86.1835141,9.17668379 86.2016564,10.5375372 86.2016564,11.5953264 L86.2016564,16.03125 L89.03125,16.03125 L89.03125,11.0285546 C89.03125,8.57182354 88.5017472,6.6830853 85.6364784,6.6830853 Z M77.0167634,2.375 C76.1079125,2.375 75.375,3.11154968 75.375,4.01895746 C75.375,4.92664704 76.1079125,5.66319671 77.0167634,5.66319671 C77.9220046,5.66319671 78.6569329,4.92664704 78.6569329,4.01895746 C78.6569329,3.11154968 77.9220046,2.375 77.0167634,2.375 Z" id="LinkedIn"></path>
            </g>
        </g>
    </g>
</svg>