<?xml version="1.0" encoding="UTF-8"?>
<svg width="19px" height="19px" viewBox="0 0 19 19" version="1.1" xmlns="http://www.w3.org/2000/svg" xmlns:xlink="http://www.w3.org/1999/xlink">
    <!-- Generator: Sketch 58 (84663) - https://sketch.com -->
    <title>Instagram Logo White</title>
    <desc>Created with Sketch.</desc>
    <g id="Symbols" stroke="none" stroke-width="1" fill="none" fill-rule="evenodd">
        <g id="D/Footer" transform="translate(-101.000000, -131.000000)" fill="#3A3A3A">
            <g id="icons" transform="translate(64.000000, 131.000000)">
                <path d="M45.4587918,0.000712213607 L47.5414304,0.000712213607 C49.1960858,0.00404742476 49.5596316,0.0178961791 50.4170418,0.0570173147 C51.4282329,0.10313825 52.1188402,0.263750731 52.7231262,0.498616786 C53.3478519,0.741364506 53.8776581,1.06620975 54.4058427,1.59435669 C54.9339897,2.12254133 55.2588349,2.65234756 55.5016203,3.27707317 C55.7364487,3.88135924 55.8970612,4.57196651 55.9431821,5.58315765 C55.9858597,6.51851424 55.9984611,6.86613132 56.0001472,8.94342037 L56.0001472,10.0568087 C55.9984611,12.1340681 55.9858597,12.4816852 55.9431821,13.4170418 C55.8970612,14.4282329 55.7364487,15.1188402 55.5016203,15.7231262 C55.2588349,16.3478519 54.9339897,16.8776581 54.4058427,17.4058427 C53.8776581,17.9339897 53.3478519,18.2588349 52.7231262,18.5016203 C52.1188402,18.7364487 51.4282329,18.8970612 50.4170418,18.9431821 C49.4816852,18.9858597 49.1340681,18.9984611 47.0568087,19.0001472 L45.9434204,19.0001472 C43.8661313,18.9984611 43.5185142,18.9858597 42.5831577,18.9431821 C41.5719665,18.8970612 40.8813592,18.7364487 40.2770732,18.5016203 C39.6523476,18.2588349 39.1225413,17.9339897 38.5943567,17.4058427 C38.0662098,16.8776581 37.7413645,16.3478519 37.4986168,15.7231262 C37.2637507,15.1188402 37.1031383,14.4282329 37.0570173,13.4170418 C37.0178962,12.5596316 37.0040474,12.1960858 37.0007122,10.5414304 L37.0007122,8.45879185 C37.0040474,6.80411361 37.0178962,6.44056786 37.0570173,5.58315765 C37.1031383,4.57196651 37.2637507,3.88135924 37.4986168,3.27707317 C37.7413645,2.65234756 38.0662098,2.12254133 38.5943567,1.59435669 C39.1225413,1.06620975 39.6523476,0.741364506 40.2770732,0.498616786 C40.8813592,0.263750731 41.5719665,0.10313825 42.5831577,0.0570173147 C43.4405679,0.0178961791 43.8041136,0.00404742476 45.4587918,0.000712213607 L47.5414304,0.000712213607 Z M47.2933883,1.71202869 L45.7068372,1.71202869 C43.8847504,1.71431721 43.5473576,1.72656675 42.6611824,1.76699908 C41.7349171,1.80923575 41.2318859,1.96400297 40.8971226,2.094107 C40.4536752,2.2664477 40.1372019,2.47231376 39.8047767,2.80477669 C39.4723138,3.13720191 39.2664477,3.45367525 39.094107,3.89712257 C38.964003,4.23188589 38.8092357,4.73491709 38.7669991,5.66118236 C38.7265667,6.54735759 38.7143172,6.88475044 38.7120287,8.70683723 L38.7120287,10.2933883 C38.7143172,12.115449 38.7265667,12.4528418 38.7669991,13.3390171 C38.8092357,14.2652823 38.964003,14.7683135 39.094107,15.1030768 C39.2664477,15.5465242 39.4723515,15.8629975 39.8047767,16.1954227 C40.1372019,16.5278857 40.4536752,16.7337517 40.8971226,16.9060924 C41.2318859,17.0361964 41.7349171,17.1909637 42.6611824,17.2332003 C43.5472575,17.2736327 43.8845798,17.2858822 45.7067822,17.2881707 L47.2934447,17.2881707 C49.1156273,17.2858822 49.4529753,17.2736327 50.3390171,17.2332003 C51.2652823,17.1909637 51.7683135,17.0361964 52.1030768,16.9060924 C52.5465242,16.7337517 52.8629975,16.5278857 53.1954227,16.1954227 C53.5278857,15.8629975 53.7337517,15.5465242 53.9060924,15.1030768 C54.0361964,14.7683135 54.1909637,14.2652823 54.2332003,13.3390171 C54.2736327,12.4528418 54.2858822,12.115449 54.2881707,10.2933883 L54.2881707,8.70683723 C54.2858822,6.88475044 54.2736327,6.54735759 54.2332003,5.66118236 C54.1909637,4.73491709 54.0361964,4.23188589 53.9060924,3.89712257 C53.7337517,3.45367525 53.5278857,3.13720191 53.1954227,2.80477669 C52.8629975,2.47231376 52.5465242,2.2664477 52.1030768,2.094107 C51.7683135,1.96400297 51.2652823,1.80923575 50.3390171,1.76699908 C49.4528418,1.72656675 49.115449,1.71431721 47.2933883,1.71202869 Z M46.5001181,4.74997334 C49.1235389,4.74997334 51.2502261,6.87666048 51.2502261,9.50011807 C51.2502261,12.1235389 49.1235389,14.2502261 46.5001181,14.2502261 C43.8766605,14.2502261 41.7499733,12.1235389 41.7499733,9.50011807 C41.7499733,6.87666048 43.8766605,4.74997334 46.5001181,4.74997334 Z M46.5001181,6.41668241 C44.7971674,6.41668241 43.4166824,7.79716741 43.4166824,9.50011807 C43.4166824,11.203032 44.7971674,12.583517 46.5001181,12.583517 C48.203032,12.583517 49.583517,11.203032 49.583517,9.50011807 C49.583517,7.79716741 48.203032,6.41668241 46.5001181,6.41668241 Z M51.6460503,3.16659788 C52.301912,3.16659788 52.8336015,3.6982874 52.8336015,4.35414911 C52.8336015,5.01001082 52.301912,5.54166106 51.6460503,5.54166106 C50.9902279,5.54166106 50.4585384,5.01001082 50.4585384,4.35414911 C50.4585384,3.6982874 50.9902279,3.16659788 51.6460503,3.16659788 Z" id="Instagram-Logo-White"></path>
            </g>
        </g>
    </g>
</svg>